<mxfile host="app.diagrams.net" agent="Mozilla/5.0 (Windows NT 10.0; Win64; x64) AppleWebKit/537.36 (KHTML, like Gecko) Chrome/128.0.0.0 Safari/537.36 OPR/114.0.0.0 (Edition Yx GX)" version="24.8.8">
  <diagram id="C5RBs43oDa-KdzZeNtuy" name="Page-1">
    <mxGraphModel dx="1880" dy="2212" grid="1" gridSize="10" guides="1" tooltips="1" connect="1" arrows="1" fold="1" page="1" pageScale="1" pageWidth="827" pageHeight="1169" math="0" shadow="0">
      <root>
        <mxCell id="WIyWlLk6GJQsqaUBKTNV-0" />
        <mxCell id="WIyWlLk6GJQsqaUBKTNV-1" parent="WIyWlLk6GJQsqaUBKTNV-0" />
        <mxCell id="zkfFHV4jXpPFQw0GAbJ--0" value="Alive" style="swimlane;fontStyle=2;align=center;verticalAlign=top;childLayout=stackLayout;horizontal=1;startSize=26;horizontalStack=0;resizeParent=1;resizeLast=0;collapsible=1;marginBottom=0;rounded=0;shadow=0;strokeWidth=1;" parent="WIyWlLk6GJQsqaUBKTNV-1" vertex="1">
          <mxGeometry x="150" y="790" width="210" height="230" as="geometry">
            <mxRectangle x="230" y="140" width="160" height="26" as="alternateBounds" />
          </mxGeometry>
        </mxCell>
        <mxCell id="zkfFHV4jXpPFQw0GAbJ--1" value="#Name:String&#xa;#age:Integer&#xa;#Mood:Mood&#xa;#currentRoom: Room&#xa;#friendArray[0..*]:ArrayList&#xa;" style="text;align=left;verticalAlign=top;spacingLeft=4;spacingRight=4;overflow=hidden;rotatable=0;points=[[0,0.5],[1,0.5]];portConstraint=eastwest;" parent="zkfFHV4jXpPFQw0GAbJ--0" vertex="1">
          <mxGeometry y="26" width="210" height="74" as="geometry" />
        </mxCell>
        <mxCell id="zkfFHV4jXpPFQw0GAbJ--4" value="" style="line;html=1;strokeWidth=1;align=left;verticalAlign=middle;spacingTop=-1;spacingLeft=3;spacingRight=3;rotatable=0;labelPosition=right;points=[];portConstraint=eastwest;" parent="zkfFHV4jXpPFQw0GAbJ--0" vertex="1">
          <mxGeometry y="100" width="210" height="8" as="geometry" />
        </mxCell>
        <mxCell id="zkfFHV4jXpPFQw0GAbJ--5" value="+Human(String: Name, Integer: Age)" style="text;align=left;verticalAlign=top;spacingLeft=4;spacingRight=4;overflow=hidden;rotatable=0;points=[[0,0.5],[1,0.5]];portConstraint=eastwest;" parent="zkfFHV4jXpPFQw0GAbJ--0" vertex="1">
          <mxGeometry y="108" width="210" height="24" as="geometry" />
        </mxCell>
        <mxCell id="ckbo8B5McpcZXStIbKBd-3" value="+walksTo(Room: RoomName)" style="text;align=left;verticalAlign=top;spacingLeft=4;spacingRight=4;overflow=hidden;rotatable=0;points=[[0,0.5],[1,0.5]];portConstraint=eastwest;" parent="zkfFHV4jXpPFQw0GAbJ--0" vertex="1">
          <mxGeometry y="132" width="210" height="24" as="geometry" />
        </mxCell>
        <mxCell id="ckbo8B5McpcZXStIbKBd-100" value="+GetAge():Integer" style="text;align=left;verticalAlign=top;spacingLeft=4;spacingRight=4;overflow=hidden;rotatable=0;points=[[0,0.5],[1,0.5]];portConstraint=eastwest;" parent="zkfFHV4jXpPFQw0GAbJ--0" vertex="1">
          <mxGeometry y="156" width="210" height="24" as="geometry" />
        </mxCell>
        <mxCell id="ckbo8B5McpcZXStIbKBd-99" value="+GetMood():Mood&#xa;" style="text;align=left;verticalAlign=top;spacingLeft=4;spacingRight=4;overflow=hidden;rotatable=0;points=[[0,0.5],[1,0.5]];portConstraint=eastwest;" parent="zkfFHV4jXpPFQw0GAbJ--0" vertex="1">
          <mxGeometry y="180" width="210" height="24" as="geometry" />
        </mxCell>
        <mxCell id="ckbo8B5McpcZXStIbKBd-101" value="+GetName(): String" style="text;align=left;verticalAlign=top;spacingLeft=4;spacingRight=4;overflow=hidden;rotatable=0;points=[[0,0.5],[1,0.5]];portConstraint=eastwest;" parent="zkfFHV4jXpPFQw0GAbJ--0" vertex="1">
          <mxGeometry y="204" width="210" height="24" as="geometry" />
        </mxCell>
        <mxCell id="zkfFHV4jXpPFQw0GAbJ--17" value="Father" style="swimlane;fontStyle=0;align=center;verticalAlign=top;childLayout=stackLayout;horizontal=1;startSize=26;horizontalStack=0;resizeParent=1;resizeLast=0;collapsible=1;marginBottom=0;rounded=0;shadow=0;strokeWidth=1;" parent="WIyWlLk6GJQsqaUBKTNV-1" vertex="1">
          <mxGeometry x="10" y="300" width="210" height="438" as="geometry">
            <mxRectangle x="508" y="120" width="160" height="26" as="alternateBounds" />
          </mxGeometry>
        </mxCell>
        <mxCell id="zkfFHV4jXpPFQw0GAbJ--19" value="#age: Integer" style="text;align=left;verticalAlign=top;spacingLeft=4;spacingRight=4;overflow=hidden;rotatable=0;points=[[0,0.5],[1,0.5]];portConstraint=eastwest;rounded=0;shadow=0;html=0;" parent="zkfFHV4jXpPFQw0GAbJ--17" vertex="1">
          <mxGeometry y="26" width="210" height="26" as="geometry" />
        </mxCell>
        <mxCell id="zkfFHV4jXpPFQw0GAbJ--20" value="#Name: String" style="text;align=left;verticalAlign=top;spacingLeft=4;spacingRight=4;overflow=hidden;rotatable=0;points=[[0,0.5],[1,0.5]];portConstraint=eastwest;rounded=0;shadow=0;html=0;" parent="zkfFHV4jXpPFQw0GAbJ--17" vertex="1">
          <mxGeometry y="52" width="210" height="26" as="geometry" />
        </mxCell>
        <mxCell id="zkfFHV4jXpPFQw0GAbJ--21" value="#Mood: Mood" style="text;align=left;verticalAlign=top;spacingLeft=4;spacingRight=4;overflow=hidden;rotatable=0;points=[[0,0.5],[1,0.5]];portConstraint=eastwest;rounded=0;shadow=0;html=0;" parent="zkfFHV4jXpPFQw0GAbJ--17" vertex="1">
          <mxGeometry y="78" width="210" height="26" as="geometry" />
        </mxCell>
        <mxCell id="ckbo8B5McpcZXStIbKBd-13" value="#currentRoom: Room" style="text;align=left;verticalAlign=top;spacingLeft=4;spacingRight=4;overflow=hidden;rotatable=0;points=[[0,0.5],[1,0.5]];portConstraint=eastwest;rounded=0;shadow=0;html=0;" parent="zkfFHV4jXpPFQw0GAbJ--17" vertex="1">
          <mxGeometry y="104" width="210" height="26" as="geometry" />
        </mxCell>
        <mxCell id="hpD-sP-uggKREhXlOQJ8-1" value="&lt;span style=&quot;text-wrap: nowrap;&quot;&gt;#friendArray[0..*]:ArrayList&lt;/span&gt;" style="text;strokeColor=none;fillColor=none;align=left;verticalAlign=top;spacingLeft=4;spacingRight=4;overflow=hidden;rotatable=0;points=[[0,0.5],[1,0.5]];portConstraint=eastwest;whiteSpace=wrap;html=1;" vertex="1" parent="zkfFHV4jXpPFQw0GAbJ--17">
          <mxGeometry y="130" width="210" height="26" as="geometry" />
        </mxCell>
        <mxCell id="zkfFHV4jXpPFQw0GAbJ--23" value="" style="line;html=1;strokeWidth=1;align=left;verticalAlign=middle;spacingTop=-1;spacingLeft=3;spacingRight=3;rotatable=0;labelPosition=right;points=[];portConstraint=eastwest;" parent="zkfFHV4jXpPFQw0GAbJ--17" vertex="1">
          <mxGeometry y="156" width="210" height="10" as="geometry" />
        </mxCell>
        <mxCell id="ckbo8B5McpcZXStIbKBd-117" value="+Human(String: Name, Integer: Age)" style="text;align=left;verticalAlign=top;spacingLeft=4;spacingRight=4;overflow=hidden;rotatable=0;points=[[0,0.5],[1,0.5]];portConstraint=eastwest;" parent="zkfFHV4jXpPFQw0GAbJ--17" vertex="1">
          <mxGeometry y="166" width="210" height="24" as="geometry" />
        </mxCell>
        <mxCell id="zkfFHV4jXpPFQw0GAbJ--24" value="+search(Object):Boolean" style="text;align=left;verticalAlign=top;spacingLeft=4;spacingRight=4;overflow=hidden;rotatable=0;points=[[0,0.5],[1,0.5]];portConstraint=eastwest;" parent="zkfFHV4jXpPFQw0GAbJ--17" vertex="1">
          <mxGeometry y="190" width="210" height="22" as="geometry" />
        </mxCell>
        <mxCell id="ckbo8B5McpcZXStIbKBd-83" value="+equals(Object): Boolean" style="text;align=left;verticalAlign=top;spacingLeft=4;spacingRight=4;overflow=hidden;rotatable=0;points=[[0,0.5],[1,0.5]];portConstraint=eastwest;" parent="zkfFHV4jXpPFQw0GAbJ--17" vertex="1">
          <mxGeometry y="212" width="210" height="26" as="geometry" />
        </mxCell>
        <mxCell id="ckbo8B5McpcZXStIbKBd-82" value="+hashcode(): hash" style="text;align=left;verticalAlign=top;spacingLeft=4;spacingRight=4;overflow=hidden;rotatable=0;points=[[0,0.5],[1,0.5]];portConstraint=eastwest;" parent="zkfFHV4jXpPFQw0GAbJ--17" vertex="1">
          <mxGeometry y="238" width="210" height="26" as="geometry" />
        </mxCell>
        <mxCell id="ckbo8B5McpcZXStIbKBd-86" value="+toString():String" style="text;align=left;verticalAlign=top;spacingLeft=4;spacingRight=4;overflow=hidden;rotatable=0;points=[[0,0.5],[1,0.5]];portConstraint=eastwest;" parent="zkfFHV4jXpPFQw0GAbJ--17" vertex="1">
          <mxGeometry y="264" width="210" height="26" as="geometry" />
        </mxCell>
        <mxCell id="ckbo8B5McpcZXStIbKBd-85" value="+walkTo(room: roomName)" style="text;align=left;verticalAlign=top;spacingLeft=4;spacingRight=4;overflow=hidden;rotatable=0;points=[[0,0.5],[1,0.5]];portConstraint=eastwest;" parent="zkfFHV4jXpPFQw0GAbJ--17" vertex="1">
          <mxGeometry y="290" width="210" height="26" as="geometry" />
        </mxCell>
        <mxCell id="ckbo8B5McpcZXStIbKBd-84" value="+setMood(mood: Mood)" style="text;align=left;verticalAlign=top;spacingLeft=4;spacingRight=4;overflow=hidden;rotatable=0;points=[[0,0.5],[1,0.5]];portConstraint=eastwest;" parent="zkfFHV4jXpPFQw0GAbJ--17" vertex="1">
          <mxGeometry y="316" width="210" height="26" as="geometry" />
        </mxCell>
        <mxCell id="ckbo8B5McpcZXStIbKBd-102" value="+GetAge():Integer" style="text;align=left;verticalAlign=top;spacingLeft=4;spacingRight=4;overflow=hidden;rotatable=0;points=[[0,0.5],[1,0.5]];portConstraint=eastwest;" parent="zkfFHV4jXpPFQw0GAbJ--17" vertex="1">
          <mxGeometry y="342" width="210" height="24" as="geometry" />
        </mxCell>
        <mxCell id="ckbo8B5McpcZXStIbKBd-104" value="+GetName(): String" style="text;align=left;verticalAlign=top;spacingLeft=4;spacingRight=4;overflow=hidden;rotatable=0;points=[[0,0.5],[1,0.5]];portConstraint=eastwest;" parent="zkfFHV4jXpPFQw0GAbJ--17" vertex="1">
          <mxGeometry y="366" width="210" height="24" as="geometry" />
        </mxCell>
        <mxCell id="ckbo8B5McpcZXStIbKBd-103" value="+GetMood():Mood&#xa;" style="text;align=left;verticalAlign=top;spacingLeft=4;spacingRight=4;overflow=hidden;rotatable=0;points=[[0,0.5],[1,0.5]];portConstraint=eastwest;" parent="zkfFHV4jXpPFQw0GAbJ--17" vertex="1">
          <mxGeometry y="390" width="210" height="24" as="geometry" />
        </mxCell>
        <mxCell id="hpD-sP-uggKREhXlOQJ8-5" value="+GetCurrentRoom(): String" style="text;align=left;verticalAlign=top;spacingLeft=4;spacingRight=4;overflow=hidden;rotatable=0;points=[[0,0.5],[1,0.5]];portConstraint=eastwest;" vertex="1" parent="zkfFHV4jXpPFQw0GAbJ--17">
          <mxGeometry y="414" width="210" height="24" as="geometry" />
        </mxCell>
        <mxCell id="ckbo8B5McpcZXStIbKBd-11" value="&lt;p style=&quot;margin:0px;margin-top:4px;text-align:center;&quot;&gt;&lt;i&gt;&amp;lt;&amp;lt;Interface&amp;gt;&amp;gt;&lt;/i&gt;&lt;br&gt;&lt;/p&gt;&lt;p style=&quot;margin:0px;margin-top:4px;text-align:center;&quot;&gt;&lt;i&gt;&lt;b&gt;Search&lt;/b&gt;&lt;/i&gt;&lt;/p&gt;&lt;hr size=&quot;1&quot; style=&quot;border-style:solid;&quot;&gt;&lt;p style=&quot;margin:0px;margin-left:4px;&quot;&gt;+ Detect(Object): Boolean&lt;br&gt;&lt;br&gt;&lt;/p&gt;" style="verticalAlign=top;align=left;overflow=fill;html=1;whiteSpace=wrap;" parent="WIyWlLk6GJQsqaUBKTNV-1" vertex="1">
          <mxGeometry x="20" y="80" width="190" height="70" as="geometry" />
        </mxCell>
        <mxCell id="ckbo8B5McpcZXStIbKBd-12" value="" style="endArrow=block;dashed=1;endFill=0;endSize=12;html=1;rounded=0;" parent="WIyWlLk6GJQsqaUBKTNV-1" source="zkfFHV4jXpPFQw0GAbJ--17" target="ckbo8B5McpcZXStIbKBd-11" edge="1">
          <mxGeometry width="160" relative="1" as="geometry">
            <mxPoint x="440" y="30" as="sourcePoint" />
            <mxPoint x="380" y="140" as="targetPoint" />
          </mxGeometry>
        </mxCell>
        <mxCell id="ckbo8B5McpcZXStIbKBd-15" value="Room" style="swimlane;fontStyle=0;childLayout=stackLayout;horizontal=1;startSize=26;fillColor=none;horizontalStack=0;resizeParent=1;resizeParentMax=0;resizeLast=0;collapsible=1;marginBottom=0;whiteSpace=wrap;html=1;" parent="WIyWlLk6GJQsqaUBKTNV-1" vertex="1">
          <mxGeometry x="840" y="-130" width="140" height="190" as="geometry" />
        </mxCell>
        <mxCell id="ckbo8B5McpcZXStIbKBd-16" value="Kitchen" style="text;strokeColor=none;fillColor=none;align=left;verticalAlign=top;spacingLeft=4;spacingRight=4;overflow=hidden;rotatable=0;points=[[0,0.5],[1,0.5]];portConstraint=eastwest;whiteSpace=wrap;html=1;" parent="ckbo8B5McpcZXStIbKBd-15" vertex="1">
          <mxGeometry y="26" width="140" height="26" as="geometry" />
        </mxCell>
        <mxCell id="ckbo8B5McpcZXStIbKBd-17" value="LivingRoom" style="text;strokeColor=none;fillColor=none;align=left;verticalAlign=top;spacingLeft=4;spacingRight=4;overflow=hidden;rotatable=0;points=[[0,0.5],[1,0.5]];portConstraint=eastwest;whiteSpace=wrap;html=1;" parent="ckbo8B5McpcZXStIbKBd-15" vertex="1">
          <mxGeometry y="52" width="140" height="26" as="geometry" />
        </mxCell>
        <mxCell id="ckbo8B5McpcZXStIbKBd-20" value="Bedroom&lt;div&gt;&lt;br&gt;&lt;/div&gt;" style="text;strokeColor=none;fillColor=none;align=left;verticalAlign=top;spacingLeft=4;spacingRight=4;overflow=hidden;rotatable=0;points=[[0,0.5],[1,0.5]];portConstraint=eastwest;whiteSpace=wrap;html=1;" parent="ckbo8B5McpcZXStIbKBd-15" vertex="1">
          <mxGeometry y="78" width="140" height="26" as="geometry" />
        </mxCell>
        <mxCell id="ckbo8B5McpcZXStIbKBd-19" value="&lt;div&gt;Attic&lt;/div&gt;&lt;div&gt;&lt;br&gt;&lt;/div&gt;&lt;div&gt;&lt;br&gt;&lt;/div&gt;" style="text;strokeColor=none;fillColor=none;align=left;verticalAlign=top;spacingLeft=4;spacingRight=4;overflow=hidden;rotatable=0;points=[[0,0.5],[1,0.5]];portConstraint=eastwest;whiteSpace=wrap;html=1;" parent="ckbo8B5McpcZXStIbKBd-15" vertex="1">
          <mxGeometry y="104" width="140" height="26" as="geometry" />
        </mxCell>
        <mxCell id="ckbo8B5McpcZXStIbKBd-21" value="&lt;div&gt;Outside&lt;/div&gt;" style="text;strokeColor=none;fillColor=none;align=left;verticalAlign=top;spacingLeft=4;spacingRight=4;overflow=hidden;rotatable=0;points=[[0,0.5],[1,0.5]];portConstraint=eastwest;whiteSpace=wrap;html=1;" parent="ckbo8B5McpcZXStIbKBd-15" vertex="1">
          <mxGeometry y="130" width="140" height="26" as="geometry" />
        </mxCell>
        <mxCell id="ckbo8B5McpcZXStIbKBd-18" value="&lt;div&gt;Office&lt;/div&gt;" style="text;strokeColor=none;fillColor=none;align=left;verticalAlign=top;spacingLeft=4;spacingRight=4;overflow=hidden;rotatable=0;points=[[0,0.5],[1,0.5]];portConstraint=eastwest;whiteSpace=wrap;html=1;" parent="ckbo8B5McpcZXStIbKBd-15" vertex="1">
          <mxGeometry y="156" width="140" height="34" as="geometry" />
        </mxCell>
        <mxCell id="ckbo8B5McpcZXStIbKBd-22" value="Days" style="swimlane;fontStyle=0;childLayout=stackLayout;horizontal=1;startSize=26;fillColor=none;horizontalStack=0;resizeParent=1;resizeParentMax=0;resizeLast=0;collapsible=1;marginBottom=0;whiteSpace=wrap;html=1;" parent="WIyWlLk6GJQsqaUBKTNV-1" vertex="1">
          <mxGeometry x="980" y="-130" width="140" height="204" as="geometry" />
        </mxCell>
        <mxCell id="ckbo8B5McpcZXStIbKBd-23" value="Monday" style="text;strokeColor=none;fillColor=none;align=left;verticalAlign=top;spacingLeft=4;spacingRight=4;overflow=hidden;rotatable=0;points=[[0,0.5],[1,0.5]];portConstraint=eastwest;whiteSpace=wrap;html=1;" parent="ckbo8B5McpcZXStIbKBd-22" vertex="1">
          <mxGeometry y="26" width="140" height="26" as="geometry" />
        </mxCell>
        <mxCell id="ckbo8B5McpcZXStIbKBd-24" value="Tuesday" style="text;strokeColor=none;fillColor=none;align=left;verticalAlign=top;spacingLeft=4;spacingRight=4;overflow=hidden;rotatable=0;points=[[0,0.5],[1,0.5]];portConstraint=eastwest;whiteSpace=wrap;html=1;" parent="ckbo8B5McpcZXStIbKBd-22" vertex="1">
          <mxGeometry y="52" width="140" height="26" as="geometry" />
        </mxCell>
        <mxCell id="ckbo8B5McpcZXStIbKBd-25" value="&lt;div&gt;Wednesday&lt;/div&gt;" style="text;strokeColor=none;fillColor=none;align=left;verticalAlign=top;spacingLeft=4;spacingRight=4;overflow=hidden;rotatable=0;points=[[0,0.5],[1,0.5]];portConstraint=eastwest;whiteSpace=wrap;html=1;" parent="ckbo8B5McpcZXStIbKBd-22" vertex="1">
          <mxGeometry y="78" width="140" height="26" as="geometry" />
        </mxCell>
        <mxCell id="ckbo8B5McpcZXStIbKBd-26" value="&lt;div&gt;Thursday&lt;/div&gt;" style="text;strokeColor=none;fillColor=none;align=left;verticalAlign=top;spacingLeft=4;spacingRight=4;overflow=hidden;rotatable=0;points=[[0,0.5],[1,0.5]];portConstraint=eastwest;whiteSpace=wrap;html=1;" parent="ckbo8B5McpcZXStIbKBd-22" vertex="1">
          <mxGeometry y="104" width="140" height="26" as="geometry" />
        </mxCell>
        <mxCell id="ckbo8B5McpcZXStIbKBd-27" value="&lt;div&gt;Friday&lt;/div&gt;" style="text;strokeColor=none;fillColor=none;align=left;verticalAlign=top;spacingLeft=4;spacingRight=4;overflow=hidden;rotatable=0;points=[[0,0.5],[1,0.5]];portConstraint=eastwest;whiteSpace=wrap;html=1;" parent="ckbo8B5McpcZXStIbKBd-22" vertex="1">
          <mxGeometry y="130" width="140" height="26" as="geometry" />
        </mxCell>
        <mxCell id="ckbo8B5McpcZXStIbKBd-28" value="&lt;div&gt;Saturday&lt;/div&gt;" style="text;strokeColor=none;fillColor=none;align=left;verticalAlign=top;spacingLeft=4;spacingRight=4;overflow=hidden;rotatable=0;points=[[0,0.5],[1,0.5]];portConstraint=eastwest;whiteSpace=wrap;html=1;" parent="ckbo8B5McpcZXStIbKBd-22" vertex="1">
          <mxGeometry y="156" width="140" height="24" as="geometry" />
        </mxCell>
        <mxCell id="ckbo8B5McpcZXStIbKBd-29" value="&lt;div&gt;Sunday&lt;/div&gt;" style="text;strokeColor=none;fillColor=none;align=left;verticalAlign=top;spacingLeft=4;spacingRight=4;overflow=hidden;rotatable=0;points=[[0,0.5],[1,0.5]];portConstraint=eastwest;whiteSpace=wrap;html=1;" parent="ckbo8B5McpcZXStIbKBd-22" vertex="1">
          <mxGeometry y="180" width="140" height="24" as="geometry" />
        </mxCell>
        <mxCell id="ckbo8B5McpcZXStIbKBd-30" value="Mood" style="swimlane;fontStyle=0;childLayout=stackLayout;horizontal=1;startSize=26;fillColor=none;horizontalStack=0;resizeParent=1;resizeParentMax=0;resizeLast=0;collapsible=1;marginBottom=0;whiteSpace=wrap;html=1;" parent="WIyWlLk6GJQsqaUBKTNV-1" vertex="1">
          <mxGeometry x="840" y="60" width="140" height="156" as="geometry" />
        </mxCell>
        <mxCell id="ckbo8B5McpcZXStIbKBd-34" value="&lt;div&gt;Good&lt;/div&gt;" style="text;strokeColor=none;fillColor=none;align=left;verticalAlign=top;spacingLeft=4;spacingRight=4;overflow=hidden;rotatable=0;points=[[0,0.5],[1,0.5]];portConstraint=eastwest;whiteSpace=wrap;html=1;" parent="ckbo8B5McpcZXStIbKBd-30" vertex="1">
          <mxGeometry y="26" width="140" height="26" as="geometry" />
        </mxCell>
        <mxCell id="ckbo8B5McpcZXStIbKBd-35" value="&lt;div&gt;Delightful&lt;/div&gt;" style="text;strokeColor=none;fillColor=none;align=left;verticalAlign=top;spacingLeft=4;spacingRight=4;overflow=hidden;rotatable=0;points=[[0,0.5],[1,0.5]];portConstraint=eastwest;whiteSpace=wrap;html=1;" parent="ckbo8B5McpcZXStIbKBd-30" vertex="1">
          <mxGeometry y="52" width="140" height="26" as="geometry" />
        </mxCell>
        <mxCell id="ckbo8B5McpcZXStIbKBd-31" value="Vostorg" style="text;strokeColor=none;fillColor=none;align=left;verticalAlign=top;spacingLeft=4;spacingRight=4;overflow=hidden;rotatable=0;points=[[0,0.5],[1,0.5]];portConstraint=eastwest;whiteSpace=wrap;html=1;" parent="ckbo8B5McpcZXStIbKBd-30" vertex="1">
          <mxGeometry y="78" width="140" height="26" as="geometry" />
        </mxCell>
        <mxCell id="ckbo8B5McpcZXStIbKBd-32" value="NotVostorg" style="text;strokeColor=none;fillColor=none;align=left;verticalAlign=top;spacingLeft=4;spacingRight=4;overflow=hidden;rotatable=0;points=[[0,0.5],[1,0.5]];portConstraint=eastwest;whiteSpace=wrap;html=1;" parent="ckbo8B5McpcZXStIbKBd-30" vertex="1">
          <mxGeometry y="104" width="140" height="26" as="geometry" />
        </mxCell>
        <mxCell id="ckbo8B5McpcZXStIbKBd-33" value="&lt;div&gt;Bad&lt;/div&gt;" style="text;strokeColor=none;fillColor=none;align=left;verticalAlign=top;spacingLeft=4;spacingRight=4;overflow=hidden;rotatable=0;points=[[0,0.5],[1,0.5]];portConstraint=eastwest;whiteSpace=wrap;html=1;" parent="ckbo8B5McpcZXStIbKBd-30" vertex="1">
          <mxGeometry y="130" width="140" height="26" as="geometry" />
        </mxCell>
        <mxCell id="ckbo8B5McpcZXStIbKBd-37" value="Weather" style="swimlane;fontStyle=0;childLayout=stackLayout;horizontal=1;startSize=26;fillColor=none;horizontalStack=0;resizeParent=1;resizeParentMax=0;resizeLast=0;collapsible=1;marginBottom=0;whiteSpace=wrap;html=1;" parent="WIyWlLk6GJQsqaUBKTNV-1" vertex="1">
          <mxGeometry x="980" y="74" width="140" height="78" as="geometry" />
        </mxCell>
        <mxCell id="ckbo8B5McpcZXStIbKBd-38" value="Good" style="text;strokeColor=none;fillColor=none;align=left;verticalAlign=top;spacingLeft=4;spacingRight=4;overflow=hidden;rotatable=0;points=[[0,0.5],[1,0.5]];portConstraint=eastwest;whiteSpace=wrap;html=1;" parent="ckbo8B5McpcZXStIbKBd-37" vertex="1">
          <mxGeometry y="26" width="140" height="26" as="geometry" />
        </mxCell>
        <mxCell id="ckbo8B5McpcZXStIbKBd-39" value="Bad" style="text;strokeColor=none;fillColor=none;align=left;verticalAlign=top;spacingLeft=4;spacingRight=4;overflow=hidden;rotatable=0;points=[[0,0.5],[1,0.5]];portConstraint=eastwest;whiteSpace=wrap;html=1;" parent="ckbo8B5McpcZXStIbKBd-37" vertex="1">
          <mxGeometry y="52" width="140" height="26" as="geometry" />
        </mxCell>
        <mxCell id="ckbo8B5McpcZXStIbKBd-43" value="Mother" style="swimlane;fontStyle=0;align=center;verticalAlign=top;childLayout=stackLayout;horizontal=1;startSize=26;horizontalStack=0;resizeParent=1;resizeLast=0;collapsible=1;marginBottom=0;rounded=0;shadow=0;strokeWidth=1;" parent="WIyWlLk6GJQsqaUBKTNV-1" vertex="1">
          <mxGeometry x="290" y="289" width="210" height="452" as="geometry">
            <mxRectangle x="508" y="120" width="160" height="26" as="alternateBounds" />
          </mxGeometry>
        </mxCell>
        <mxCell id="ckbo8B5McpcZXStIbKBd-44" value="#age: Integer" style="text;align=left;verticalAlign=top;spacingLeft=4;spacingRight=4;overflow=hidden;rotatable=0;points=[[0,0.5],[1,0.5]];portConstraint=eastwest;rounded=0;shadow=0;html=0;" parent="ckbo8B5McpcZXStIbKBd-43" vertex="1">
          <mxGeometry y="26" width="210" height="26" as="geometry" />
        </mxCell>
        <mxCell id="ckbo8B5McpcZXStIbKBd-45" value="#Name: String" style="text;align=left;verticalAlign=top;spacingLeft=4;spacingRight=4;overflow=hidden;rotatable=0;points=[[0,0.5],[1,0.5]];portConstraint=eastwest;rounded=0;shadow=0;html=0;" parent="ckbo8B5McpcZXStIbKBd-43" vertex="1">
          <mxGeometry y="52" width="210" height="26" as="geometry" />
        </mxCell>
        <mxCell id="ckbo8B5McpcZXStIbKBd-46" value="#Mood: Mood" style="text;align=left;verticalAlign=top;spacingLeft=4;spacingRight=4;overflow=hidden;rotatable=0;points=[[0,0.5],[1,0.5]];portConstraint=eastwest;rounded=0;shadow=0;html=0;" parent="ckbo8B5McpcZXStIbKBd-43" vertex="1">
          <mxGeometry y="78" width="210" height="26" as="geometry" />
        </mxCell>
        <mxCell id="ckbo8B5McpcZXStIbKBd-47" value="#currentRoom: Room" style="text;align=left;verticalAlign=top;spacingLeft=4;spacingRight=4;overflow=hidden;rotatable=0;points=[[0,0.5],[1,0.5]];portConstraint=eastwest;rounded=0;shadow=0;html=0;" parent="ckbo8B5McpcZXStIbKBd-43" vertex="1">
          <mxGeometry y="104" width="210" height="26" as="geometry" />
        </mxCell>
        <mxCell id="hpD-sP-uggKREhXlOQJ8-2" value="&lt;span style=&quot;text-wrap: nowrap;&quot;&gt;#friendArray[0..*]:ArrayList&lt;/span&gt;" style="text;strokeColor=none;fillColor=none;align=left;verticalAlign=top;spacingLeft=4;spacingRight=4;overflow=hidden;rotatable=0;points=[[0,0.5],[1,0.5]];portConstraint=eastwest;whiteSpace=wrap;html=1;" vertex="1" parent="ckbo8B5McpcZXStIbKBd-43">
          <mxGeometry y="130" width="210" height="26" as="geometry" />
        </mxCell>
        <mxCell id="ckbo8B5McpcZXStIbKBd-48" value="" style="line;html=1;strokeWidth=1;align=left;verticalAlign=middle;spacingTop=-1;spacingLeft=3;spacingRight=3;rotatable=0;labelPosition=right;points=[];portConstraint=eastwest;" parent="ckbo8B5McpcZXStIbKBd-43" vertex="1">
          <mxGeometry y="156" width="210" height="20" as="geometry" />
        </mxCell>
        <mxCell id="ckbo8B5McpcZXStIbKBd-118" value="+Human(String: Name, Integer: Age)" style="text;align=left;verticalAlign=top;spacingLeft=4;spacingRight=4;overflow=hidden;rotatable=0;points=[[0,0.5],[1,0.5]];portConstraint=eastwest;" parent="ckbo8B5McpcZXStIbKBd-43" vertex="1">
          <mxGeometry y="176" width="210" height="24" as="geometry" />
        </mxCell>
        <mxCell id="ckbo8B5McpcZXStIbKBd-49" value="+search(Object):Boolean" style="text;align=left;verticalAlign=top;spacingLeft=4;spacingRight=4;overflow=hidden;rotatable=0;points=[[0,0.5],[1,0.5]];portConstraint=eastwest;" parent="ckbo8B5McpcZXStIbKBd-43" vertex="1">
          <mxGeometry y="200" width="210" height="26" as="geometry" />
        </mxCell>
        <mxCell id="ckbo8B5McpcZXStIbKBd-74" value="+setMood(mood: Mood)" style="text;align=left;verticalAlign=top;spacingLeft=4;spacingRight=4;overflow=hidden;rotatable=0;points=[[0,0.5],[1,0.5]];portConstraint=eastwest;" parent="ckbo8B5McpcZXStIbKBd-43" vertex="1">
          <mxGeometry y="226" width="210" height="26" as="geometry" />
        </mxCell>
        <mxCell id="ckbo8B5McpcZXStIbKBd-78" value="+walkTo(room: roomName)" style="text;align=left;verticalAlign=top;spacingLeft=4;spacingRight=4;overflow=hidden;rotatable=0;points=[[0,0.5],[1,0.5]];portConstraint=eastwest;" parent="ckbo8B5McpcZXStIbKBd-43" vertex="1">
          <mxGeometry y="252" width="210" height="26" as="geometry" />
        </mxCell>
        <mxCell id="ckbo8B5McpcZXStIbKBd-77" value="+toString():String" style="text;align=left;verticalAlign=top;spacingLeft=4;spacingRight=4;overflow=hidden;rotatable=0;points=[[0,0.5],[1,0.5]];portConstraint=eastwest;" parent="ckbo8B5McpcZXStIbKBd-43" vertex="1">
          <mxGeometry y="278" width="210" height="26" as="geometry" />
        </mxCell>
        <mxCell id="ckbo8B5McpcZXStIbKBd-76" value="+hashcode(): hash" style="text;align=left;verticalAlign=top;spacingLeft=4;spacingRight=4;overflow=hidden;rotatable=0;points=[[0,0.5],[1,0.5]];portConstraint=eastwest;" parent="ckbo8B5McpcZXStIbKBd-43" vertex="1">
          <mxGeometry y="304" width="210" height="26" as="geometry" />
        </mxCell>
        <mxCell id="ckbo8B5McpcZXStIbKBd-75" value="+equals(Object): Boolean" style="text;align=left;verticalAlign=top;spacingLeft=4;spacingRight=4;overflow=hidden;rotatable=0;points=[[0,0.5],[1,0.5]];portConstraint=eastwest;" parent="ckbo8B5McpcZXStIbKBd-43" vertex="1">
          <mxGeometry y="330" width="210" height="26" as="geometry" />
        </mxCell>
        <mxCell id="ckbo8B5McpcZXStIbKBd-108" value="+GetAge():Integer" style="text;align=left;verticalAlign=top;spacingLeft=4;spacingRight=4;overflow=hidden;rotatable=0;points=[[0,0.5],[1,0.5]];portConstraint=eastwest;" parent="ckbo8B5McpcZXStIbKBd-43" vertex="1">
          <mxGeometry y="356" width="210" height="24" as="geometry" />
        </mxCell>
        <mxCell id="ckbo8B5McpcZXStIbKBd-109" value="+GetName(): String" style="text;align=left;verticalAlign=top;spacingLeft=4;spacingRight=4;overflow=hidden;rotatable=0;points=[[0,0.5],[1,0.5]];portConstraint=eastwest;" parent="ckbo8B5McpcZXStIbKBd-43" vertex="1">
          <mxGeometry y="380" width="210" height="24" as="geometry" />
        </mxCell>
        <mxCell id="ckbo8B5McpcZXStIbKBd-110" value="+GetMood():Mood&#xa;" style="text;align=left;verticalAlign=top;spacingLeft=4;spacingRight=4;overflow=hidden;rotatable=0;points=[[0,0.5],[1,0.5]];portConstraint=eastwest;" parent="ckbo8B5McpcZXStIbKBd-43" vertex="1">
          <mxGeometry y="404" width="210" height="24" as="geometry" />
        </mxCell>
        <mxCell id="hpD-sP-uggKREhXlOQJ8-6" value="+GetCurrentRoom(): String" style="text;align=left;verticalAlign=top;spacingLeft=4;spacingRight=4;overflow=hidden;rotatable=0;points=[[0,0.5],[1,0.5]];portConstraint=eastwest;" vertex="1" parent="ckbo8B5McpcZXStIbKBd-43">
          <mxGeometry y="428" width="210" height="24" as="geometry" />
        </mxCell>
        <mxCell id="ckbo8B5McpcZXStIbKBd-54" value="&lt;p style=&quot;margin:0px;margin-top:4px;text-align:center;&quot;&gt;&lt;i&gt;&amp;lt;&amp;lt;Interface&amp;gt;&amp;gt;&lt;/i&gt;&lt;br&gt;&lt;b&gt;HasFriends&lt;/b&gt;&lt;/p&gt;&lt;hr size=&quot;1&quot; style=&quot;border-style:solid;&quot;&gt;&lt;p style=&quot;margin:0px;margin-left:4px;&quot;&gt;&lt;/p&gt;&lt;p style=&quot;margin:0px;margin-left:4px;&quot;&gt;+ addFriend(Object)&lt;br&gt;+ RemoveFriend(Object)&lt;/p&gt;&lt;p style=&quot;margin:0px;margin-left:4px;&quot;&gt;+CheckFriends(): Array&lt;/p&gt;" style="verticalAlign=top;align=left;overflow=fill;html=1;whiteSpace=wrap;" parent="WIyWlLk6GJQsqaUBKTNV-1" vertex="1">
          <mxGeometry x="890" y="970" width="190" height="140" as="geometry" />
        </mxCell>
        <mxCell id="ckbo8B5McpcZXStIbKBd-55" value="&lt;div&gt;&lt;br&gt;&lt;/div&gt;&lt;div&gt;&lt;br&gt;&lt;/div&gt;" style="endArrow=block;endSize=16;endFill=0;html=1;rounded=0;" parent="WIyWlLk6GJQsqaUBKTNV-1" source="ckbo8B5McpcZXStIbKBd-43" target="zkfFHV4jXpPFQw0GAbJ--0" edge="1">
          <mxGeometry width="160" relative="1" as="geometry">
            <mxPoint x="230" y="100" as="sourcePoint" />
            <mxPoint x="520" y="170" as="targetPoint" />
          </mxGeometry>
        </mxCell>
        <mxCell id="ckbo8B5McpcZXStIbKBd-56" value="" style="endArrow=block;dashed=1;endFill=0;endSize=12;html=1;rounded=0;" parent="WIyWlLk6GJQsqaUBKTNV-1" source="ckbo8B5McpcZXStIbKBd-43" target="ckbo8B5McpcZXStIbKBd-11" edge="1">
          <mxGeometry width="160" relative="1" as="geometry">
            <mxPoint x="360" y="150" as="sourcePoint" />
            <mxPoint x="420" as="targetPoint" />
          </mxGeometry>
        </mxCell>
        <mxCell id="ckbo8B5McpcZXStIbKBd-57" value="Journalist" style="swimlane;fontStyle=0;align=center;verticalAlign=top;childLayout=stackLayout;horizontal=1;startSize=26;horizontalStack=0;resizeParent=1;resizeLast=0;collapsible=1;marginBottom=0;rounded=0;shadow=0;strokeWidth=1;" parent="WIyWlLk6GJQsqaUBKTNV-1" vertex="1">
          <mxGeometry x="510" y="190" width="240" height="494" as="geometry">
            <mxRectangle x="508" y="120" width="160" height="26" as="alternateBounds" />
          </mxGeometry>
        </mxCell>
        <mxCell id="ckbo8B5McpcZXStIbKBd-58" value="#age: Integer" style="text;align=left;verticalAlign=top;spacingLeft=4;spacingRight=4;overflow=hidden;rotatable=0;points=[[0,0.5],[1,0.5]];portConstraint=eastwest;rounded=0;shadow=0;html=0;" parent="ckbo8B5McpcZXStIbKBd-57" vertex="1">
          <mxGeometry y="26" width="240" height="26" as="geometry" />
        </mxCell>
        <mxCell id="ckbo8B5McpcZXStIbKBd-59" value="#Name: String" style="text;align=left;verticalAlign=top;spacingLeft=4;spacingRight=4;overflow=hidden;rotatable=0;points=[[0,0.5],[1,0.5]];portConstraint=eastwest;rounded=0;shadow=0;html=0;" parent="ckbo8B5McpcZXStIbKBd-57" vertex="1">
          <mxGeometry y="52" width="240" height="26" as="geometry" />
        </mxCell>
        <mxCell id="ckbo8B5McpcZXStIbKBd-60" value="#Mood: Mood" style="text;align=left;verticalAlign=top;spacingLeft=4;spacingRight=4;overflow=hidden;rotatable=0;points=[[0,0.5],[1,0.5]];portConstraint=eastwest;rounded=0;shadow=0;html=0;" parent="ckbo8B5McpcZXStIbKBd-57" vertex="1">
          <mxGeometry y="78" width="240" height="26" as="geometry" />
        </mxCell>
        <mxCell id="ckbo8B5McpcZXStIbKBd-61" value="#currentRoom: Room" style="text;align=left;verticalAlign=top;spacingLeft=4;spacingRight=4;overflow=hidden;rotatable=0;points=[[0,0.5],[1,0.5]];portConstraint=eastwest;rounded=0;shadow=0;html=0;" parent="ckbo8B5McpcZXStIbKBd-57" vertex="1">
          <mxGeometry y="104" width="240" height="26" as="geometry" />
        </mxCell>
        <mxCell id="hpD-sP-uggKREhXlOQJ8-0" value="&lt;span style=&quot;text-wrap: nowrap;&quot;&gt;#friendArray[0..*]:ArrayList&lt;/span&gt;" style="text;strokeColor=none;fillColor=none;align=left;verticalAlign=top;spacingLeft=4;spacingRight=4;overflow=hidden;rotatable=0;points=[[0,0.5],[1,0.5]];portConstraint=eastwest;whiteSpace=wrap;html=1;" vertex="1" parent="ckbo8B5McpcZXStIbKBd-57">
          <mxGeometry y="130" width="240" height="26" as="geometry" />
        </mxCell>
        <mxCell id="ckbo8B5McpcZXStIbKBd-62" value="" style="line;html=1;strokeWidth=1;align=left;verticalAlign=middle;spacingTop=-1;spacingLeft=3;spacingRight=3;rotatable=0;labelPosition=right;points=[];portConstraint=eastwest;" parent="ckbo8B5McpcZXStIbKBd-57" vertex="1">
          <mxGeometry y="156" width="240" height="10" as="geometry" />
        </mxCell>
        <mxCell id="ckbo8B5McpcZXStIbKBd-119" value="+Human(String: Name, Integer: Age)" style="text;align=left;verticalAlign=top;spacingLeft=4;spacingRight=4;overflow=hidden;rotatable=0;points=[[0,0.5],[1,0.5]];portConstraint=eastwest;" parent="ckbo8B5McpcZXStIbKBd-57" vertex="1">
          <mxGeometry y="166" width="240" height="24" as="geometry" />
        </mxCell>
        <mxCell id="ckbo8B5McpcZXStIbKBd-63" value="+search(Object):Boolean" style="text;align=left;verticalAlign=top;spacingLeft=4;spacingRight=4;overflow=hidden;rotatable=0;points=[[0,0.5],[1,0.5]];portConstraint=eastwest;" parent="ckbo8B5McpcZXStIbKBd-57" vertex="1">
          <mxGeometry y="190" width="240" height="26" as="geometry" />
        </mxCell>
        <mxCell id="ckbo8B5McpcZXStIbKBd-66" value="+setMood(mood: Mood)" style="text;align=left;verticalAlign=top;spacingLeft=4;spacingRight=4;overflow=hidden;rotatable=0;points=[[0,0.5],[1,0.5]];portConstraint=eastwest;" parent="ckbo8B5McpcZXStIbKBd-57" vertex="1">
          <mxGeometry y="216" width="240" height="26" as="geometry" />
        </mxCell>
        <mxCell id="ckbo8B5McpcZXStIbKBd-67" value="+equals(Object): Boolean" style="text;align=left;verticalAlign=top;spacingLeft=4;spacingRight=4;overflow=hidden;rotatable=0;points=[[0,0.5],[1,0.5]];portConstraint=eastwest;" parent="ckbo8B5McpcZXStIbKBd-57" vertex="1">
          <mxGeometry y="242" width="240" height="26" as="geometry" />
        </mxCell>
        <mxCell id="ckbo8B5McpcZXStIbKBd-68" value="+hashcode(): hash" style="text;align=left;verticalAlign=top;spacingLeft=4;spacingRight=4;overflow=hidden;rotatable=0;points=[[0,0.5],[1,0.5]];portConstraint=eastwest;" parent="ckbo8B5McpcZXStIbKBd-57" vertex="1">
          <mxGeometry y="268" width="240" height="26" as="geometry" />
        </mxCell>
        <mxCell id="ckbo8B5McpcZXStIbKBd-70" value="+toString():String" style="text;align=left;verticalAlign=top;spacingLeft=4;spacingRight=4;overflow=hidden;rotatable=0;points=[[0,0.5],[1,0.5]];portConstraint=eastwest;" parent="ckbo8B5McpcZXStIbKBd-57" vertex="1">
          <mxGeometry y="294" width="240" height="26" as="geometry" />
        </mxCell>
        <mxCell id="ckbo8B5McpcZXStIbKBd-71" value="+walkTo(room: roomName)" style="text;align=left;verticalAlign=top;spacingLeft=4;spacingRight=4;overflow=hidden;rotatable=0;points=[[0,0.5],[1,0.5]];portConstraint=eastwest;" parent="ckbo8B5McpcZXStIbKBd-57" vertex="1">
          <mxGeometry y="320" width="240" height="26" as="geometry" />
        </mxCell>
        <mxCell id="ckbo8B5McpcZXStIbKBd-72" value="+doPhoto()" style="text;align=left;verticalAlign=top;spacingLeft=4;spacingRight=4;overflow=hidden;rotatable=0;points=[[0,0.5],[1,0.5]];portConstraint=eastwest;" parent="ckbo8B5McpcZXStIbKBd-57" vertex="1">
          <mxGeometry y="346" width="240" height="26" as="geometry" />
        </mxCell>
        <mxCell id="ckbo8B5McpcZXStIbKBd-111" value="+GetAge():Integer" style="text;align=left;verticalAlign=top;spacingLeft=4;spacingRight=4;overflow=hidden;rotatable=0;points=[[0,0.5],[1,0.5]];portConstraint=eastwest;" parent="ckbo8B5McpcZXStIbKBd-57" vertex="1">
          <mxGeometry y="372" width="240" height="24" as="geometry" />
        </mxCell>
        <mxCell id="ckbo8B5McpcZXStIbKBd-112" value="+GetName(): String" style="text;align=left;verticalAlign=top;spacingLeft=4;spacingRight=4;overflow=hidden;rotatable=0;points=[[0,0.5],[1,0.5]];portConstraint=eastwest;" parent="ckbo8B5McpcZXStIbKBd-57" vertex="1">
          <mxGeometry y="396" width="240" height="24" as="geometry" />
        </mxCell>
        <mxCell id="ckbo8B5McpcZXStIbKBd-113" value="+GetMood():Mood&#xa;" style="text;align=left;verticalAlign=top;spacingLeft=4;spacingRight=4;overflow=hidden;rotatable=0;points=[[0,0.5],[1,0.5]];portConstraint=eastwest;" parent="ckbo8B5McpcZXStIbKBd-57" vertex="1">
          <mxGeometry y="420" width="240" height="24" as="geometry" />
        </mxCell>
        <mxCell id="hpD-sP-uggKREhXlOQJ8-7" value="+GetCurrentRoom(): String" style="text;align=left;verticalAlign=top;spacingLeft=4;spacingRight=4;overflow=hidden;rotatable=0;points=[[0,0.5],[1,0.5]];portConstraint=eastwest;" vertex="1" parent="ckbo8B5McpcZXStIbKBd-57">
          <mxGeometry y="444" width="240" height="24" as="geometry" />
        </mxCell>
        <mxCell id="ckbo8B5McpcZXStIbKBd-73" value="+DoNewspaper(String: NewspaperName)" style="text;align=left;verticalAlign=top;spacingLeft=4;spacingRight=4;overflow=hidden;rotatable=0;points=[[0,0.5],[1,0.5]];portConstraint=eastwest;" parent="ckbo8B5McpcZXStIbKBd-57" vertex="1">
          <mxGeometry y="468" width="240" height="26" as="geometry" />
        </mxCell>
        <mxCell id="ckbo8B5McpcZXStIbKBd-65" value="" style="endArrow=block;dashed=1;endFill=0;endSize=12;html=1;rounded=0;" parent="WIyWlLk6GJQsqaUBKTNV-1" source="ckbo8B5McpcZXStIbKBd-57" target="ckbo8B5McpcZXStIbKBd-11" edge="1">
          <mxGeometry width="160" relative="1" as="geometry">
            <mxPoint x="290.0030226700252" y="-6.75" as="sourcePoint" />
            <mxPoint x="639.6" y="262.7451456310682" as="targetPoint" />
          </mxGeometry>
        </mxCell>
        <mxCell id="ckbo8B5McpcZXStIbKBd-10" value="&lt;div&gt;&lt;br&gt;&lt;/div&gt;&lt;div&gt;&lt;br&gt;&lt;/div&gt;" style="endArrow=block;endSize=16;endFill=0;html=1;rounded=0;" parent="WIyWlLk6GJQsqaUBKTNV-1" source="zkfFHV4jXpPFQw0GAbJ--17" target="zkfFHV4jXpPFQw0GAbJ--0" edge="1">
          <mxGeometry width="160" relative="1" as="geometry">
            <mxPoint x="170.00448621553866" y="78" as="sourcePoint" />
            <mxPoint x="206.0947117794485" y="-12" as="targetPoint" />
          </mxGeometry>
        </mxCell>
        <mxCell id="ckbo8B5McpcZXStIbKBd-122" value="&lt;div&gt;&lt;br&gt;&lt;/div&gt;&lt;div&gt;&lt;br&gt;&lt;/div&gt;" style="endArrow=block;endSize=16;endFill=0;html=1;rounded=0;" parent="WIyWlLk6GJQsqaUBKTNV-1" source="ckbo8B5McpcZXStIbKBd-57" target="zkfFHV4jXpPFQw0GAbJ--0" edge="1">
          <mxGeometry width="160" relative="1" as="geometry">
            <mxPoint x="534" y="269" as="sourcePoint" />
            <mxPoint x="510" y="190" as="targetPoint" />
          </mxGeometry>
        </mxCell>
        <mxCell id="ckbo8B5McpcZXStIbKBd-130" value="Baby" style="swimlane;fontStyle=0;align=center;verticalAlign=top;childLayout=stackLayout;horizontal=1;startSize=26;horizontalStack=0;resizeParent=1;resizeLast=0;collapsible=1;marginBottom=0;rounded=0;shadow=0;strokeWidth=1;" parent="WIyWlLk6GJQsqaUBKTNV-1" vertex="1">
          <mxGeometry x="390" y="750" width="210" height="536" as="geometry">
            <mxRectangle x="330" y="1040" width="160" height="26" as="alternateBounds" />
          </mxGeometry>
        </mxCell>
        <mxCell id="ckbo8B5McpcZXStIbKBd-131" value="#age: Integer" style="text;align=left;verticalAlign=top;spacingLeft=4;spacingRight=4;overflow=hidden;rotatable=0;points=[[0,0.5],[1,0.5]];portConstraint=eastwest;rounded=0;shadow=0;html=0;" parent="ckbo8B5McpcZXStIbKBd-130" vertex="1">
          <mxGeometry y="26" width="210" height="26" as="geometry" />
        </mxCell>
        <mxCell id="ckbo8B5McpcZXStIbKBd-132" value="#Name: String" style="text;align=left;verticalAlign=top;spacingLeft=4;spacingRight=4;overflow=hidden;rotatable=0;points=[[0,0.5],[1,0.5]];portConstraint=eastwest;rounded=0;shadow=0;html=0;" parent="ckbo8B5McpcZXStIbKBd-130" vertex="1">
          <mxGeometry y="52" width="210" height="26" as="geometry" />
        </mxCell>
        <mxCell id="ckbo8B5McpcZXStIbKBd-133" value="#Mood: Mood" style="text;align=left;verticalAlign=top;spacingLeft=4;spacingRight=4;overflow=hidden;rotatable=0;points=[[0,0.5],[1,0.5]];portConstraint=eastwest;rounded=0;shadow=0;html=0;" parent="ckbo8B5McpcZXStIbKBd-130" vertex="1">
          <mxGeometry y="78" width="210" height="26" as="geometry" />
        </mxCell>
        <mxCell id="ckbo8B5McpcZXStIbKBd-134" value="#currentRoom: Room" style="text;align=left;verticalAlign=top;spacingLeft=4;spacingRight=4;overflow=hidden;rotatable=0;points=[[0,0.5],[1,0.5]];portConstraint=eastwest;rounded=0;shadow=0;html=0;" parent="ckbo8B5McpcZXStIbKBd-130" vertex="1">
          <mxGeometry y="104" width="210" height="26" as="geometry" />
        </mxCell>
        <mxCell id="ckbo8B5McpcZXStIbKBd-135" value="#friendArray[0..*]:ArrayList" style="text;align=left;verticalAlign=top;spacingLeft=4;spacingRight=4;overflow=hidden;rotatable=0;points=[[0,0.5],[1,0.5]];portConstraint=eastwest;rounded=0;shadow=0;html=0;" parent="ckbo8B5McpcZXStIbKBd-130" vertex="1">
          <mxGeometry y="130" width="210" height="26" as="geometry" />
        </mxCell>
        <mxCell id="ckbo8B5McpcZXStIbKBd-136" value="" style="line;html=1;strokeWidth=1;align=left;verticalAlign=middle;spacingTop=-1;spacingLeft=3;spacingRight=3;rotatable=0;labelPosition=right;points=[];portConstraint=eastwest;" parent="ckbo8B5McpcZXStIbKBd-130" vertex="1">
          <mxGeometry y="156" width="210" height="10" as="geometry" />
        </mxCell>
        <mxCell id="ckbo8B5McpcZXStIbKBd-137" value="+Human(String: Name, Integer: Age)" style="text;align=left;verticalAlign=top;spacingLeft=4;spacingRight=4;overflow=hidden;rotatable=0;points=[[0,0.5],[1,0.5]];portConstraint=eastwest;" parent="ckbo8B5McpcZXStIbKBd-130" vertex="1">
          <mxGeometry y="166" width="210" height="24" as="geometry" />
        </mxCell>
        <mxCell id="ckbo8B5McpcZXStIbKBd-138" value="+equals(Object): Boolean" style="text;align=left;verticalAlign=top;spacingLeft=4;spacingRight=4;overflow=hidden;rotatable=0;points=[[0,0.5],[1,0.5]];portConstraint=eastwest;" parent="ckbo8B5McpcZXStIbKBd-130" vertex="1">
          <mxGeometry y="190" width="210" height="26" as="geometry" />
        </mxCell>
        <mxCell id="ckbo8B5McpcZXStIbKBd-139" value="+hashcode(): hash" style="text;align=left;verticalAlign=top;spacingLeft=4;spacingRight=4;overflow=hidden;rotatable=0;points=[[0,0.5],[1,0.5]];portConstraint=eastwest;" parent="ckbo8B5McpcZXStIbKBd-130" vertex="1">
          <mxGeometry y="216" width="210" height="26" as="geometry" />
        </mxCell>
        <mxCell id="ckbo8B5McpcZXStIbKBd-140" value="+toString():String" style="text;align=left;verticalAlign=top;spacingLeft=4;spacingRight=4;overflow=hidden;rotatable=0;points=[[0,0.5],[1,0.5]];portConstraint=eastwest;" parent="ckbo8B5McpcZXStIbKBd-130" vertex="1">
          <mxGeometry y="242" width="210" height="26" as="geometry" />
        </mxCell>
        <mxCell id="ckbo8B5McpcZXStIbKBd-141" value="+walkTo(room: roomName)" style="text;align=left;verticalAlign=top;spacingLeft=4;spacingRight=4;overflow=hidden;rotatable=0;points=[[0,0.5],[1,0.5]];portConstraint=eastwest;" parent="ckbo8B5McpcZXStIbKBd-130" vertex="1">
          <mxGeometry y="268" width="210" height="26" as="geometry" />
        </mxCell>
        <mxCell id="ckbo8B5McpcZXStIbKBd-142" value="+setMood(mood: Mood)" style="text;align=left;verticalAlign=top;spacingLeft=4;spacingRight=4;overflow=hidden;rotatable=0;points=[[0,0.5],[1,0.5]];portConstraint=eastwest;" parent="ckbo8B5McpcZXStIbKBd-130" vertex="1">
          <mxGeometry y="294" width="210" height="26" as="geometry" />
        </mxCell>
        <mxCell id="ckbo8B5McpcZXStIbKBd-232" value="+CheckFriends(): Array&#xa;" style="text;align=left;verticalAlign=top;spacingLeft=4;spacingRight=4;overflow=hidden;rotatable=0;points=[[0,0.5],[1,0.5]];portConstraint=eastwest;" parent="ckbo8B5McpcZXStIbKBd-130" vertex="1">
          <mxGeometry y="320" width="210" height="24" as="geometry" />
        </mxCell>
        <mxCell id="ckbo8B5McpcZXStIbKBd-233" value="+GetAge():Integer" style="text;align=left;verticalAlign=top;spacingLeft=4;spacingRight=4;overflow=hidden;rotatable=0;points=[[0,0.5],[1,0.5]];portConstraint=eastwest;" parent="ckbo8B5McpcZXStIbKBd-130" vertex="1">
          <mxGeometry y="344" width="210" height="24" as="geometry" />
        </mxCell>
        <mxCell id="ckbo8B5McpcZXStIbKBd-234" value="+GetMood():Mood&#xa;" style="text;align=left;verticalAlign=top;spacingLeft=4;spacingRight=4;overflow=hidden;rotatable=0;points=[[0,0.5],[1,0.5]];portConstraint=eastwest;" parent="ckbo8B5McpcZXStIbKBd-130" vertex="1">
          <mxGeometry y="368" width="210" height="24" as="geometry" />
        </mxCell>
        <mxCell id="ckbo8B5McpcZXStIbKBd-239" value="+CheckFriends(): Array&#xa;" style="text;align=left;verticalAlign=top;spacingLeft=4;spacingRight=4;overflow=hidden;rotatable=0;points=[[0,0.5],[1,0.5]];portConstraint=eastwest;" parent="ckbo8B5McpcZXStIbKBd-130" vertex="1">
          <mxGeometry y="392" width="210" height="24" as="geometry" />
        </mxCell>
        <mxCell id="ckbo8B5McpcZXStIbKBd-238" value="+ Play()&#xa;" style="text;align=left;verticalAlign=top;spacingLeft=4;spacingRight=4;overflow=hidden;rotatable=0;points=[[0,0.5],[1,0.5]];portConstraint=eastwest;" parent="ckbo8B5McpcZXStIbKBd-130" vertex="1">
          <mxGeometry y="416" width="210" height="24" as="geometry" />
        </mxCell>
        <mxCell id="ckbo8B5McpcZXStIbKBd-237" value="+ RemoveFriend(Object)&#xa;" style="text;align=left;verticalAlign=top;spacingLeft=4;spacingRight=4;overflow=hidden;rotatable=0;points=[[0,0.5],[1,0.5]];portConstraint=eastwest;" parent="ckbo8B5McpcZXStIbKBd-130" vertex="1">
          <mxGeometry y="440" width="210" height="24" as="geometry" />
        </mxCell>
        <mxCell id="ckbo8B5McpcZXStIbKBd-236" value="+ addFriend(Object)&#xa;" style="text;align=left;verticalAlign=top;spacingLeft=4;spacingRight=4;overflow=hidden;rotatable=0;points=[[0,0.5],[1,0.5]];portConstraint=eastwest;" parent="ckbo8B5McpcZXStIbKBd-130" vertex="1">
          <mxGeometry y="464" width="210" height="24" as="geometry" />
        </mxCell>
        <mxCell id="ckbo8B5McpcZXStIbKBd-235" value="+GetName(): String" style="text;align=left;verticalAlign=top;spacingLeft=4;spacingRight=4;overflow=hidden;rotatable=0;points=[[0,0.5],[1,0.5]];portConstraint=eastwest;" parent="ckbo8B5McpcZXStIbKBd-130" vertex="1">
          <mxGeometry y="488" width="210" height="24" as="geometry" />
        </mxCell>
        <mxCell id="hpD-sP-uggKREhXlOQJ8-4" value="+GetCurrentRoom(): String" style="text;align=left;verticalAlign=top;spacingLeft=4;spacingRight=4;overflow=hidden;rotatable=0;points=[[0,0.5],[1,0.5]];portConstraint=eastwest;" vertex="1" parent="ckbo8B5McpcZXStIbKBd-130">
          <mxGeometry y="512" width="210" height="24" as="geometry" />
        </mxCell>
        <mxCell id="ckbo8B5McpcZXStIbKBd-149" value="&lt;div&gt;&lt;br&gt;&lt;/div&gt;&lt;div&gt;&lt;br&gt;&lt;/div&gt;" style="endArrow=block;endSize=16;endFill=0;html=1;rounded=0;" parent="WIyWlLk6GJQsqaUBKTNV-1" source="ckbo8B5McpcZXStIbKBd-130" target="zkfFHV4jXpPFQw0GAbJ--0" edge="1">
          <mxGeometry width="160" relative="1" as="geometry">
            <mxPoint x="480" y="1010" as="sourcePoint" />
            <mxPoint x="310" y="1047" as="targetPoint" />
          </mxGeometry>
        </mxCell>
        <mxCell id="ckbo8B5McpcZXStIbKBd-151" value="&lt;p style=&quot;margin:0px;margin-top:4px;text-align:center;&quot;&gt;&lt;i&gt;&amp;lt;&amp;lt;Interface&amp;gt;&amp;gt;&lt;/i&gt;&lt;br&gt;&lt;/p&gt;&lt;p style=&quot;margin:0px;margin-top:4px;text-align:center;&quot;&gt;&lt;i&gt;&lt;b&gt;Playing&lt;/b&gt;&lt;/i&gt;&lt;/p&gt;&lt;hr size=&quot;1&quot; style=&quot;border-style:solid;&quot;&gt;&lt;p style=&quot;margin:0px;margin-left:4px;&quot;&gt;+ Play()&lt;br&gt;&lt;br&gt;&lt;/p&gt;" style="verticalAlign=top;align=left;overflow=fill;html=1;whiteSpace=wrap;" parent="WIyWlLk6GJQsqaUBKTNV-1" vertex="1">
          <mxGeometry x="650" y="1210" width="190" height="70" as="geometry" />
        </mxCell>
        <mxCell id="ckbo8B5McpcZXStIbKBd-153" value="" style="endArrow=block;dashed=1;endFill=0;endSize=12;html=1;rounded=0;" parent="WIyWlLk6GJQsqaUBKTNV-1" source="ckbo8B5McpcZXStIbKBd-130" target="ckbo8B5McpcZXStIbKBd-151" edge="1">
          <mxGeometry width="160" relative="1" as="geometry">
            <mxPoint x="645" y="1298" as="sourcePoint" />
            <mxPoint x="750" y="1260" as="targetPoint" />
            <Array as="points">
              <mxPoint x="620" y="1284" />
              <mxPoint x="620" y="1240" />
            </Array>
          </mxGeometry>
        </mxCell>
        <mxCell id="ckbo8B5McpcZXStIbKBd-175" value="Dog" style="swimlane;fontStyle=1;align=center;verticalAlign=top;childLayout=stackLayout;horizontal=1;startSize=26;horizontalStack=0;resizeParent=1;resizeParentMax=0;resizeLast=0;collapsible=1;marginBottom=0;whiteSpace=wrap;html=1;" parent="WIyWlLk6GJQsqaUBKTNV-1" vertex="1">
          <mxGeometry x="220" y="1262" width="160" height="460" as="geometry" />
        </mxCell>
        <mxCell id="ckbo8B5McpcZXStIbKBd-180" value="#name : String" style="text;strokeColor=none;fillColor=none;align=left;verticalAlign=top;spacingLeft=4;spacingRight=4;overflow=hidden;rotatable=0;points=[[0,0.5],[1,0.5]];portConstraint=eastwest;whiteSpace=wrap;html=1;" parent="ckbo8B5McpcZXStIbKBd-175" vertex="1">
          <mxGeometry y="26" width="160" height="26" as="geometry" />
        </mxCell>
        <mxCell id="ckbo8B5McpcZXStIbKBd-176" value="#age: Integer" style="text;strokeColor=none;fillColor=none;align=left;verticalAlign=top;spacingLeft=4;spacingRight=4;overflow=hidden;rotatable=0;points=[[0,0.5],[1,0.5]];portConstraint=eastwest;whiteSpace=wrap;html=1;" parent="ckbo8B5McpcZXStIbKBd-175" vertex="1">
          <mxGeometry y="52" width="160" height="26" as="geometry" />
        </mxCell>
        <mxCell id="ckbo8B5McpcZXStIbKBd-183" value="&lt;span style=&quot;text-wrap: nowrap;&quot;&gt;#Mood: Mood&lt;/span&gt;" style="text;strokeColor=none;fillColor=none;align=left;verticalAlign=top;spacingLeft=4;spacingRight=4;overflow=hidden;rotatable=0;points=[[0,0.5],[1,0.5]];portConstraint=eastwest;whiteSpace=wrap;html=1;" parent="ckbo8B5McpcZXStIbKBd-175" vertex="1">
          <mxGeometry y="78" width="160" height="26" as="geometry" />
        </mxCell>
        <mxCell id="ckbo8B5McpcZXStIbKBd-181" value="&lt;span style=&quot;text-wrap: nowrap;&quot;&gt;#currentRoom: Rooms&lt;/span&gt;" style="text;strokeColor=none;fillColor=none;align=left;verticalAlign=top;spacingLeft=4;spacingRight=4;overflow=hidden;rotatable=0;points=[[0,0.5],[1,0.5]];portConstraint=eastwest;whiteSpace=wrap;html=1;" parent="ckbo8B5McpcZXStIbKBd-175" vertex="1">
          <mxGeometry y="104" width="160" height="26" as="geometry" />
        </mxCell>
        <mxCell id="ckbo8B5McpcZXStIbKBd-182" value="&lt;span style=&quot;text-wrap: nowrap;&quot;&gt;#friendArray[0..*]:ArrayList&lt;/span&gt;" style="text;strokeColor=none;fillColor=none;align=left;verticalAlign=top;spacingLeft=4;spacingRight=4;overflow=hidden;rotatable=0;points=[[0,0.5],[1,0.5]];portConstraint=eastwest;whiteSpace=wrap;html=1;" parent="ckbo8B5McpcZXStIbKBd-175" vertex="1">
          <mxGeometry y="130" width="160" height="26" as="geometry" />
        </mxCell>
        <mxCell id="ckbo8B5McpcZXStIbKBd-177" value="" style="line;strokeWidth=1;fillColor=none;align=left;verticalAlign=middle;spacingTop=-1;spacingLeft=3;spacingRight=3;rotatable=0;labelPosition=right;points=[];portConstraint=eastwest;strokeColor=inherit;" parent="ckbo8B5McpcZXStIbKBd-175" vertex="1">
          <mxGeometry y="156" width="160" height="8" as="geometry" />
        </mxCell>
        <mxCell id="ckbo8B5McpcZXStIbKBd-178" value="&lt;span style=&quot;text-wrap: nowrap;&quot;&gt;+equals(Object): Boolean&lt;/span&gt;" style="text;strokeColor=none;fillColor=none;align=left;verticalAlign=top;spacingLeft=4;spacingRight=4;overflow=hidden;rotatable=0;points=[[0,0.5],[1,0.5]];portConstraint=eastwest;whiteSpace=wrap;html=1;" parent="ckbo8B5McpcZXStIbKBd-175" vertex="1">
          <mxGeometry y="164" width="160" height="26" as="geometry" />
        </mxCell>
        <mxCell id="ckbo8B5McpcZXStIbKBd-186" value="&lt;span style=&quot;text-wrap: nowrap;&quot;&gt;+hashcode(): hash&lt;/span&gt;" style="text;strokeColor=none;fillColor=none;align=left;verticalAlign=top;spacingLeft=4;spacingRight=4;overflow=hidden;rotatable=0;points=[[0,0.5],[1,0.5]];portConstraint=eastwest;whiteSpace=wrap;html=1;" parent="ckbo8B5McpcZXStIbKBd-175" vertex="1">
          <mxGeometry y="190" width="160" height="26" as="geometry" />
        </mxCell>
        <mxCell id="ckbo8B5McpcZXStIbKBd-187" value="&lt;span style=&quot;text-wrap: nowrap;&quot;&gt;+toString():String&lt;/span&gt;" style="text;strokeColor=none;fillColor=none;align=left;verticalAlign=top;spacingLeft=4;spacingRight=4;overflow=hidden;rotatable=0;points=[[0,0.5],[1,0.5]];portConstraint=eastwest;whiteSpace=wrap;html=1;" parent="ckbo8B5McpcZXStIbKBd-175" vertex="1">
          <mxGeometry y="216" width="160" height="26" as="geometry" />
        </mxCell>
        <mxCell id="ckbo8B5McpcZXStIbKBd-188" value="&lt;span style=&quot;text-wrap: nowrap;&quot;&gt;+walkTo(room: roomName)&lt;/span&gt;" style="text;strokeColor=none;fillColor=none;align=left;verticalAlign=top;spacingLeft=4;spacingRight=4;overflow=hidden;rotatable=0;points=[[0,0.5],[1,0.5]];portConstraint=eastwest;whiteSpace=wrap;html=1;" parent="ckbo8B5McpcZXStIbKBd-175" vertex="1">
          <mxGeometry y="242" width="160" height="26" as="geometry" />
        </mxCell>
        <mxCell id="ckbo8B5McpcZXStIbKBd-143" value="+GetAge():Integer" style="text;align=left;verticalAlign=top;spacingLeft=4;spacingRight=4;overflow=hidden;rotatable=0;points=[[0,0.5],[1,0.5]];portConstraint=eastwest;" parent="ckbo8B5McpcZXStIbKBd-175" vertex="1">
          <mxGeometry y="268" width="160" height="24" as="geometry" />
        </mxCell>
        <mxCell id="ckbo8B5McpcZXStIbKBd-144" value="+GetMood():Mood&#xa;" style="text;align=left;verticalAlign=top;spacingLeft=4;spacingRight=4;overflow=hidden;rotatable=0;points=[[0,0.5],[1,0.5]];portConstraint=eastwest;" parent="ckbo8B5McpcZXStIbKBd-175" vertex="1">
          <mxGeometry y="292" width="160" height="24" as="geometry" />
        </mxCell>
        <mxCell id="ckbo8B5McpcZXStIbKBd-145" value="+GetName(): String" style="text;align=left;verticalAlign=top;spacingLeft=4;spacingRight=4;overflow=hidden;rotatable=0;points=[[0,0.5],[1,0.5]];portConstraint=eastwest;" parent="ckbo8B5McpcZXStIbKBd-175" vertex="1">
          <mxGeometry y="316" width="160" height="24" as="geometry" />
        </mxCell>
        <mxCell id="ckbo8B5McpcZXStIbKBd-146" value="+ addFriend(Object)&#xa;" style="text;align=left;verticalAlign=top;spacingLeft=4;spacingRight=4;overflow=hidden;rotatable=0;points=[[0,0.5],[1,0.5]];portConstraint=eastwest;" parent="ckbo8B5McpcZXStIbKBd-175" vertex="1">
          <mxGeometry y="340" width="160" height="24" as="geometry" />
        </mxCell>
        <mxCell id="ckbo8B5McpcZXStIbKBd-147" value="+ RemoveFriend(Object)&#xa;" style="text;align=left;verticalAlign=top;spacingLeft=4;spacingRight=4;overflow=hidden;rotatable=0;points=[[0,0.5],[1,0.5]];portConstraint=eastwest;" parent="ckbo8B5McpcZXStIbKBd-175" vertex="1">
          <mxGeometry y="364" width="160" height="24" as="geometry" />
        </mxCell>
        <mxCell id="ckbo8B5McpcZXStIbKBd-152" value="+ Play()&#xa;" style="text;align=left;verticalAlign=top;spacingLeft=4;spacingRight=4;overflow=hidden;rotatable=0;points=[[0,0.5],[1,0.5]];portConstraint=eastwest;" parent="ckbo8B5McpcZXStIbKBd-175" vertex="1">
          <mxGeometry y="388" width="160" height="24" as="geometry" />
        </mxCell>
        <mxCell id="ckbo8B5McpcZXStIbKBd-148" value="+CheckFriends(): Array&#xa;" style="text;align=left;verticalAlign=top;spacingLeft=4;spacingRight=4;overflow=hidden;rotatable=0;points=[[0,0.5],[1,0.5]];portConstraint=eastwest;" parent="ckbo8B5McpcZXStIbKBd-175" vertex="1">
          <mxGeometry y="412" width="160" height="24" as="geometry" />
        </mxCell>
        <mxCell id="hpD-sP-uggKREhXlOQJ8-8" value="+GetCurrentRoom(): String" style="text;align=left;verticalAlign=top;spacingLeft=4;spacingRight=4;overflow=hidden;rotatable=0;points=[[0,0.5],[1,0.5]];portConstraint=eastwest;" vertex="1" parent="ckbo8B5McpcZXStIbKBd-175">
          <mxGeometry y="436" width="160" height="24" as="geometry" />
        </mxCell>
        <mxCell id="ckbo8B5McpcZXStIbKBd-190" value="" style="endArrow=block;dashed=1;endFill=0;endSize=12;html=1;rounded=0;" parent="WIyWlLk6GJQsqaUBKTNV-1" source="ckbo8B5McpcZXStIbKBd-130" target="ckbo8B5McpcZXStIbKBd-54" edge="1">
          <mxGeometry width="160" relative="1" as="geometry">
            <mxPoint x="620" y="1140" as="sourcePoint" />
            <mxPoint x="750" y="1207" as="targetPoint" />
          </mxGeometry>
        </mxCell>
        <mxCell id="ckbo8B5McpcZXStIbKBd-191" value="" style="endArrow=block;dashed=1;endFill=0;endSize=12;html=1;rounded=0;" parent="WIyWlLk6GJQsqaUBKTNV-1" source="ckbo8B5McpcZXStIbKBd-175" target="ckbo8B5McpcZXStIbKBd-54" edge="1">
          <mxGeometry width="160" relative="1" as="geometry">
            <mxPoint x="550" y="1247" as="sourcePoint" />
            <mxPoint x="900" y="1092" as="targetPoint" />
          </mxGeometry>
        </mxCell>
        <mxCell id="ckbo8B5McpcZXStIbKBd-193" value="" style="endArrow=block;dashed=1;endFill=0;endSize=12;html=1;rounded=0;" parent="WIyWlLk6GJQsqaUBKTNV-1" source="ckbo8B5McpcZXStIbKBd-175" target="ckbo8B5McpcZXStIbKBd-151" edge="1">
          <mxGeometry width="160" relative="1" as="geometry">
            <mxPoint x="890" y="1332" as="sourcePoint" />
            <mxPoint x="969" y="1120" as="targetPoint" />
          </mxGeometry>
        </mxCell>
        <mxCell id="ckbo8B5McpcZXStIbKBd-195" value="&lt;p style=&quot;margin:0px;margin-top:4px;text-align:center;&quot;&gt;&lt;i&gt;&amp;lt;&amp;lt;Interface&amp;gt;&amp;gt;&lt;/i&gt;&lt;br&gt;&lt;b&gt;Flyable&lt;/b&gt;&lt;/p&gt;&lt;hr size=&quot;1&quot; style=&quot;border-style:solid;&quot;&gt;&lt;p style=&quot;margin:0px;margin-left:4px;&quot;&gt;+Fly(Room: room_name)&lt;br&gt;&lt;br&gt;&lt;/p&gt;" style="verticalAlign=top;align=left;overflow=fill;html=1;whiteSpace=wrap;" parent="WIyWlLk6GJQsqaUBKTNV-1" vertex="1">
          <mxGeometry x="1070" y="1250" width="190" height="70" as="geometry" />
        </mxCell>
        <mxCell id="ckbo8B5McpcZXStIbKBd-240" value="Carlson" style="swimlane;fontStyle=0;align=center;verticalAlign=top;childLayout=stackLayout;horizontal=1;startSize=26;horizontalStack=0;resizeParent=1;resizeLast=0;collapsible=1;marginBottom=0;rounded=0;shadow=0;strokeWidth=1;" parent="WIyWlLk6GJQsqaUBKTNV-1" vertex="1">
          <mxGeometry x="860" y="1340" width="210" height="656" as="geometry">
            <mxRectangle x="330" y="1040" width="160" height="26" as="alternateBounds" />
          </mxGeometry>
        </mxCell>
        <mxCell id="ckbo8B5McpcZXStIbKBd-241" value="#age: Integer" style="text;align=left;verticalAlign=top;spacingLeft=4;spacingRight=4;overflow=hidden;rotatable=0;points=[[0,0.5],[1,0.5]];portConstraint=eastwest;rounded=0;shadow=0;html=0;" parent="ckbo8B5McpcZXStIbKBd-240" vertex="1">
          <mxGeometry y="26" width="210" height="26" as="geometry" />
        </mxCell>
        <mxCell id="ckbo8B5McpcZXStIbKBd-242" value="#Name: String" style="text;align=left;verticalAlign=top;spacingLeft=4;spacingRight=4;overflow=hidden;rotatable=0;points=[[0,0.5],[1,0.5]];portConstraint=eastwest;rounded=0;shadow=0;html=0;" parent="ckbo8B5McpcZXStIbKBd-240" vertex="1">
          <mxGeometry y="52" width="210" height="26" as="geometry" />
        </mxCell>
        <mxCell id="ckbo8B5McpcZXStIbKBd-243" value="#Mood: Mood" style="text;align=left;verticalAlign=top;spacingLeft=4;spacingRight=4;overflow=hidden;rotatable=0;points=[[0,0.5],[1,0.5]];portConstraint=eastwest;rounded=0;shadow=0;html=0;" parent="ckbo8B5McpcZXStIbKBd-240" vertex="1">
          <mxGeometry y="78" width="210" height="26" as="geometry" />
        </mxCell>
        <mxCell id="ckbo8B5McpcZXStIbKBd-244" value="#currentRoom: Room" style="text;align=left;verticalAlign=top;spacingLeft=4;spacingRight=4;overflow=hidden;rotatable=0;points=[[0,0.5],[1,0.5]];portConstraint=eastwest;rounded=0;shadow=0;html=0;" parent="ckbo8B5McpcZXStIbKBd-240" vertex="1">
          <mxGeometry y="104" width="210" height="26" as="geometry" />
        </mxCell>
        <mxCell id="ckbo8B5McpcZXStIbKBd-245" value="#friendArray[0..*]:ArrayList" style="text;align=left;verticalAlign=top;spacingLeft=4;spacingRight=4;overflow=hidden;rotatable=0;points=[[0,0.5],[1,0.5]];portConstraint=eastwest;rounded=0;shadow=0;html=0;" parent="ckbo8B5McpcZXStIbKBd-240" vertex="1">
          <mxGeometry y="130" width="210" height="26" as="geometry" />
        </mxCell>
        <mxCell id="ckbo8B5McpcZXStIbKBd-246" value="" style="line;html=1;strokeWidth=1;align=left;verticalAlign=middle;spacingTop=-1;spacingLeft=3;spacingRight=3;rotatable=0;labelPosition=right;points=[];portConstraint=eastwest;" parent="ckbo8B5McpcZXStIbKBd-240" vertex="1">
          <mxGeometry y="156" width="210" height="10" as="geometry" />
        </mxCell>
        <mxCell id="ckbo8B5McpcZXStIbKBd-247" value="+Human(String: Name, Integer: Age)" style="text;align=left;verticalAlign=top;spacingLeft=4;spacingRight=4;overflow=hidden;rotatable=0;points=[[0,0.5],[1,0.5]];portConstraint=eastwest;" parent="ckbo8B5McpcZXStIbKBd-240" vertex="1">
          <mxGeometry y="166" width="210" height="24" as="geometry" />
        </mxCell>
        <mxCell id="ckbo8B5McpcZXStIbKBd-248" value="+equals(Object): Boolean" style="text;align=left;verticalAlign=top;spacingLeft=4;spacingRight=4;overflow=hidden;rotatable=0;points=[[0,0.5],[1,0.5]];portConstraint=eastwest;" parent="ckbo8B5McpcZXStIbKBd-240" vertex="1">
          <mxGeometry y="190" width="210" height="26" as="geometry" />
        </mxCell>
        <mxCell id="ckbo8B5McpcZXStIbKBd-249" value="+hashcode(): hash" style="text;align=left;verticalAlign=top;spacingLeft=4;spacingRight=4;overflow=hidden;rotatable=0;points=[[0,0.5],[1,0.5]];portConstraint=eastwest;" parent="ckbo8B5McpcZXStIbKBd-240" vertex="1">
          <mxGeometry y="216" width="210" height="26" as="geometry" />
        </mxCell>
        <mxCell id="ckbo8B5McpcZXStIbKBd-250" value="+toString():String" style="text;align=left;verticalAlign=top;spacingLeft=4;spacingRight=4;overflow=hidden;rotatable=0;points=[[0,0.5],[1,0.5]];portConstraint=eastwest;" parent="ckbo8B5McpcZXStIbKBd-240" vertex="1">
          <mxGeometry y="242" width="210" height="26" as="geometry" />
        </mxCell>
        <mxCell id="ckbo8B5McpcZXStIbKBd-251" value="+walkTo(room: roomName)" style="text;align=left;verticalAlign=top;spacingLeft=4;spacingRight=4;overflow=hidden;rotatable=0;points=[[0,0.5],[1,0.5]];portConstraint=eastwest;" parent="ckbo8B5McpcZXStIbKBd-240" vertex="1">
          <mxGeometry y="268" width="210" height="26" as="geometry" />
        </mxCell>
        <mxCell id="ckbo8B5McpcZXStIbKBd-252" value="+setMood(mood: Mood)" style="text;align=left;verticalAlign=top;spacingLeft=4;spacingRight=4;overflow=hidden;rotatable=0;points=[[0,0.5],[1,0.5]];portConstraint=eastwest;" parent="ckbo8B5McpcZXStIbKBd-240" vertex="1">
          <mxGeometry y="294" width="210" height="26" as="geometry" />
        </mxCell>
        <mxCell id="ckbo8B5McpcZXStIbKBd-253" value="+CheckFriends(): Array&#xa;" style="text;align=left;verticalAlign=top;spacingLeft=4;spacingRight=4;overflow=hidden;rotatable=0;points=[[0,0.5],[1,0.5]];portConstraint=eastwest;" parent="ckbo8B5McpcZXStIbKBd-240" vertex="1">
          <mxGeometry y="320" width="210" height="24" as="geometry" />
        </mxCell>
        <mxCell id="ckbo8B5McpcZXStIbKBd-254" value="+GetAge():Integer" style="text;align=left;verticalAlign=top;spacingLeft=4;spacingRight=4;overflow=hidden;rotatable=0;points=[[0,0.5],[1,0.5]];portConstraint=eastwest;" parent="ckbo8B5McpcZXStIbKBd-240" vertex="1">
          <mxGeometry y="344" width="210" height="24" as="geometry" />
        </mxCell>
        <mxCell id="ckbo8B5McpcZXStIbKBd-255" value="+GetMood():Mood&#xa;" style="text;align=left;verticalAlign=top;spacingLeft=4;spacingRight=4;overflow=hidden;rotatable=0;points=[[0,0.5],[1,0.5]];portConstraint=eastwest;" parent="ckbo8B5McpcZXStIbKBd-240" vertex="1">
          <mxGeometry y="368" width="210" height="24" as="geometry" />
        </mxCell>
        <mxCell id="ckbo8B5McpcZXStIbKBd-256" value="+CheckFriends(): Array&#xa;" style="text;align=left;verticalAlign=top;spacingLeft=4;spacingRight=4;overflow=hidden;rotatable=0;points=[[0,0.5],[1,0.5]];portConstraint=eastwest;" parent="ckbo8B5McpcZXStIbKBd-240" vertex="1">
          <mxGeometry y="392" width="210" height="24" as="geometry" />
        </mxCell>
        <mxCell id="ckbo8B5McpcZXStIbKBd-257" value="+ Play()&#xa;" style="text;align=left;verticalAlign=top;spacingLeft=4;spacingRight=4;overflow=hidden;rotatable=0;points=[[0,0.5],[1,0.5]];portConstraint=eastwest;" parent="ckbo8B5McpcZXStIbKBd-240" vertex="1">
          <mxGeometry y="416" width="210" height="24" as="geometry" />
        </mxCell>
        <mxCell id="ckbo8B5McpcZXStIbKBd-267" value="+ Play(Object)&#xa;" style="text;align=left;verticalAlign=top;spacingLeft=4;spacingRight=4;overflow=hidden;rotatable=0;points=[[0,0.5],[1,0.5]];portConstraint=eastwest;" parent="ckbo8B5McpcZXStIbKBd-240" vertex="1">
          <mxGeometry y="440" width="210" height="24" as="geometry" />
        </mxCell>
        <mxCell id="ckbo8B5McpcZXStIbKBd-258" value="+ RemoveFriend(Object)&#xa;" style="text;align=left;verticalAlign=top;spacingLeft=4;spacingRight=4;overflow=hidden;rotatable=0;points=[[0,0.5],[1,0.5]];portConstraint=eastwest;" parent="ckbo8B5McpcZXStIbKBd-240" vertex="1">
          <mxGeometry y="464" width="210" height="24" as="geometry" />
        </mxCell>
        <mxCell id="ckbo8B5McpcZXStIbKBd-259" value="+ addFriend(Object)&#xa;" style="text;align=left;verticalAlign=top;spacingLeft=4;spacingRight=4;overflow=hidden;rotatable=0;points=[[0,0.5],[1,0.5]];portConstraint=eastwest;" parent="ckbo8B5McpcZXStIbKBd-240" vertex="1">
          <mxGeometry y="488" width="210" height="24" as="geometry" />
        </mxCell>
        <mxCell id="ckbo8B5McpcZXStIbKBd-264" value="+GetName(): String" style="text;align=left;verticalAlign=top;spacingLeft=4;spacingRight=4;overflow=hidden;rotatable=0;points=[[0,0.5],[1,0.5]];portConstraint=eastwest;" parent="ckbo8B5McpcZXStIbKBd-240" vertex="1">
          <mxGeometry y="512" width="210" height="24" as="geometry" />
        </mxCell>
        <mxCell id="ckbo8B5McpcZXStIbKBd-265" value="+Fly(Room: room_name)" style="text;align=left;verticalAlign=top;spacingLeft=4;spacingRight=4;overflow=hidden;rotatable=0;points=[[0,0.5],[1,0.5]];portConstraint=eastwest;" parent="ckbo8B5McpcZXStIbKBd-240" vertex="1">
          <mxGeometry y="536" width="210" height="24" as="geometry" />
        </mxCell>
        <mxCell id="ckbo8B5McpcZXStIbKBd-266" value="+eatJelly()" style="text;align=left;verticalAlign=top;spacingLeft=4;spacingRight=4;overflow=hidden;rotatable=0;points=[[0,0.5],[1,0.5]];portConstraint=eastwest;" parent="ckbo8B5McpcZXStIbKBd-240" vertex="1">
          <mxGeometry y="560" width="210" height="24" as="geometry" />
        </mxCell>
        <mxCell id="ckbo8B5McpcZXStIbKBd-271" value="+watchThroughWindow()" style="text;align=left;verticalAlign=top;spacingLeft=4;spacingRight=4;overflow=hidden;rotatable=0;points=[[0,0.5],[1,0.5]];portConstraint=eastwest;" parent="ckbo8B5McpcZXStIbKBd-240" vertex="1">
          <mxGeometry y="584" width="210" height="24" as="geometry" />
        </mxCell>
        <mxCell id="hpD-sP-uggKREhXlOQJ8-9" value="+GetCurrentRoom(): String" style="text;align=left;verticalAlign=top;spacingLeft=4;spacingRight=4;overflow=hidden;rotatable=0;points=[[0,0.5],[1,0.5]];portConstraint=eastwest;" vertex="1" parent="ckbo8B5McpcZXStIbKBd-240">
          <mxGeometry y="608" width="210" height="24" as="geometry" />
        </mxCell>
        <mxCell id="ckbo8B5McpcZXStIbKBd-260" value="+search(Object):Boolean" style="text;align=left;verticalAlign=top;spacingLeft=4;spacingRight=4;overflow=hidden;rotatable=0;points=[[0,0.5],[1,0.5]];portConstraint=eastwest;" parent="ckbo8B5McpcZXStIbKBd-240" vertex="1">
          <mxGeometry y="632" width="210" height="24" as="geometry" />
        </mxCell>
        <mxCell id="ckbo8B5McpcZXStIbKBd-261" value="" style="endArrow=block;dashed=1;endFill=0;endSize=12;html=1;rounded=0;" parent="WIyWlLk6GJQsqaUBKTNV-1" source="ckbo8B5McpcZXStIbKBd-240" target="ckbo8B5McpcZXStIbKBd-151" edge="1">
          <mxGeometry width="160" relative="1" as="geometry">
            <mxPoint x="780" y="1428" as="sourcePoint" />
            <mxPoint x="950" y="1250" as="targetPoint" />
          </mxGeometry>
        </mxCell>
        <mxCell id="ckbo8B5McpcZXStIbKBd-262" value="" style="endArrow=block;dashed=1;endFill=0;endSize=12;html=1;rounded=0;" parent="WIyWlLk6GJQsqaUBKTNV-1" source="ckbo8B5McpcZXStIbKBd-195" target="ckbo8B5McpcZXStIbKBd-54" edge="1">
          <mxGeometry width="160" relative="1" as="geometry">
            <mxPoint x="790" y="1438" as="sourcePoint" />
            <mxPoint x="965" y="1130" as="targetPoint" />
          </mxGeometry>
        </mxCell>
        <mxCell id="ckbo8B5McpcZXStIbKBd-263" value="" style="endArrow=block;dashed=1;endFill=0;endSize=12;html=1;rounded=0;" parent="WIyWlLk6GJQsqaUBKTNV-1" source="ckbo8B5McpcZXStIbKBd-240" target="ckbo8B5McpcZXStIbKBd-54" edge="1">
          <mxGeometry width="160" relative="1" as="geometry">
            <mxPoint x="895" y="1439" as="sourcePoint" />
            <mxPoint x="1070" y="1131" as="targetPoint" />
          </mxGeometry>
        </mxCell>
        <mxCell id="ckbo8B5McpcZXStIbKBd-268" value="&lt;p style=&quot;margin:0px;margin-top:4px;text-align:center;&quot;&gt;&lt;i&gt;&amp;lt;&amp;lt;Interface&amp;gt;&amp;gt;&lt;/i&gt;&lt;br&gt;&lt;b&gt;WindowWatching&lt;/b&gt;&lt;/p&gt;&lt;hr size=&quot;1&quot; style=&quot;border-style:solid;&quot;&gt;&lt;p style=&quot;margin:0px;margin-left:4px;&quot;&gt;+WatchThroughWindow()&lt;br&gt;&lt;/p&gt;" style="verticalAlign=top;align=left;overflow=fill;html=1;whiteSpace=wrap;" parent="WIyWlLk6GJQsqaUBKTNV-1" vertex="1">
          <mxGeometry x="1190" y="1600" width="190" height="70" as="geometry" />
        </mxCell>
        <mxCell id="ckbo8B5McpcZXStIbKBd-269" value="" style="endArrow=block;dashed=1;endFill=0;endSize=12;html=1;rounded=0;" parent="WIyWlLk6GJQsqaUBKTNV-1" source="ckbo8B5McpcZXStIbKBd-240" target="ckbo8B5McpcZXStIbKBd-268" edge="1">
          <mxGeometry width="160" relative="1" as="geometry">
            <mxPoint x="1150" y="1673" as="sourcePoint" />
            <mxPoint x="1158" y="1443" as="targetPoint" />
          </mxGeometry>
        </mxCell>
        <mxCell id="ckbo8B5McpcZXStIbKBd-270" value="" style="endArrow=block;dashed=1;endFill=0;endSize=12;html=1;rounded=0;" parent="WIyWlLk6GJQsqaUBKTNV-1" source="ckbo8B5McpcZXStIbKBd-240" target="ckbo8B5McpcZXStIbKBd-11" edge="1">
          <mxGeometry width="160" relative="1" as="geometry">
            <mxPoint x="420" y="210" as="sourcePoint" />
            <mxPoint x="241" y="90" as="targetPoint" />
          </mxGeometry>
        </mxCell>
        <mxCell id="hpD-sP-uggKREhXlOQJ8-3" value="&lt;div&gt;&lt;br&gt;&lt;/div&gt;&lt;div&gt;&lt;br&gt;&lt;/div&gt;" style="endArrow=block;endSize=16;endFill=0;html=1;rounded=0;" edge="1" parent="WIyWlLk6GJQsqaUBKTNV-1" source="ckbo8B5McpcZXStIbKBd-175" target="zkfFHV4jXpPFQw0GAbJ--0">
          <mxGeometry width="160" relative="1" as="geometry">
            <mxPoint x="150" y="1186" as="sourcePoint" />
            <mxPoint x="177" y="1262" as="targetPoint" />
          </mxGeometry>
        </mxCell>
      </root>
    </mxGraphModel>
  </diagram>
</mxfile>
